<?xml version="1.0" encoding="UTF-8"?>
<!DOCTYPE svg PUBLIC "-//W3C//DTD SVG 1.1//EN" "http://www.w3.org/Graphics/SVG/1.1/DTD/svg11.dtd">
<!-- Creator: CorelDRAW 2019 (64-Bit) -->
<svg xmlns="http://www.w3.org/2000/svg" xml:space="preserve" width="200px" height="200px" version="1.1" style="shape-rendering:geometricPrecision; text-rendering:geometricPrecision; image-rendering:optimizeQuality; fill-rule:evenodd; clip-rule:evenodd"
viewBox="0 0 200 200"
 xmlns:xlink="http://www.w3.org/1999/xlink">
 <defs>
  <style type="text/css">
   <![CDATA[
    .fil1 {fill:url(#id0)}
    .fil0 {fill:url(#id1)}
    .fil3 {fill:url(#id2)}
    .fil2 {fill:url(#id3)}
   ]]>
  </style>
  <linearGradient id="id0" gradientUnits="userSpaceOnUse" x1="121.94" y1="0.08" x2="121.94" y2="200.08">
   <stop offset="0" style="stop-opacity:1; stop-color:#D02F44"/>
   <stop offset="1" style="stop-opacity:1; stop-color:#B12537"/>
  </linearGradient>
  <linearGradient id="id1" gradientUnits="userSpaceOnUse" x1="121.94" y1="0.08" x2="121.94" y2="200.07">
   <stop offset="0" style="stop-opacity:1; stop-color:white"/>
   <stop offset="1" style="stop-opacity:1; stop-color:#F0F0F0"/>
  </linearGradient>
  <linearGradient id="id2" gradientUnits="userSpaceOnUse" xlink:href="#id1" x1="41.94" y1="13.41" x2="41.94" y2="80.08">
  </linearGradient>
  <linearGradient id="id3" gradientUnits="userSpaceOnUse" x1="41.94" y1="0.08" x2="41.94" y2="93.41">
   <stop offset="0" style="stop-opacity:1; stop-color:#46467F"/>
   <stop offset="1" style="stop-opacity:1; stop-color:#3C3C6D"/>
  </linearGradient>
 </defs>
 <g id="Capa_x0020_1">
  <metadata id="CorelCorpID_0Corel-Layer"/>
  <g id="US">
   <path id="FlagBackground" class="fil0" d="M99.53 200.07l0.79 0c55.05,-0.21 99.6,-44.9 99.6,-99.99 0,-55.23 -44.77,-100 -100,-100 -55.22,0 -100,44.77 -100,100 0,55.09 44.56,99.78 99.61,99.99z"/>
   <path id="Rectangle-511" class="fil1" d="M149.84 13.41l-99.84 0c14.69,-8.48 31.74,-13.33 49.92,-13.33 18.19,0 35.23,4.85 49.92,13.33zm-117.89 13.33l135.95 0c4.4,4.08 8.42,8.54 12.03,13.34l-160.01 0c3.6,-4.8 7.63,-9.26 12.03,-13.34zm-20.49 26.67l176.92 0c2.26,4.27 4.22,8.72 5.85,13.33l-188.61 0c1.63,-4.61 3.59,-9.06 5.84,-13.33zm-9.53 26.67l195.99 0c0.89,4.34 1.48,8.8 1.78,13.33l-199.55 0c0.3,-4.53 0.89,-8.99 1.78,-13.33zm-1.78 26.66l199.55 0c-0.3,4.54 -0.9,8.99 -1.78,13.34l-195.99 0c-0.89,-4.35 -1.48,-8.8 -1.78,-13.34zm5.47 26.67l188.61 0c-1.63,4.61 -3.59,9.06 -5.85,13.33l-176.92 0c-2.25,-4.27 -4.21,-8.72 -5.84,-13.33zm14.3 26.66l160.01 0c-3.6,4.8 -7.63,9.26 -12.03,13.34l-135.95 0c-4.4,-4.08 -8.43,-8.54 -12.03,-13.34zm30.08 26.67l99.84 0c-14.69,8.48 -31.73,13.34 -49.92,13.34 -18.18,0 -35.23,-4.86 -49.92,-13.34z"/>
   <path id="Rectangle-511_0" class="fil2" d="M0.15 93.41l101.79 0 0 -93.31c-0.67,-0.01 -1.34,-0.02 -2.02,-0.02 -52.98,0 -96.34,41.21 -99.77,93.33z"/>
   <path id="Oval-43" class="fil3" d="M55.27 26.74c-3.68,0 -6.66,-2.98 -6.66,-6.66 0,-3.69 2.98,-6.67 6.66,-6.67 3.68,0 6.67,2.98 6.67,6.67 0,3.68 -2.99,6.66 -6.67,6.66zm26.67 0c-3.68,0 -6.67,-2.98 -6.67,-6.66 0,-3.69 2.99,-6.67 6.67,-6.67 3.68,0 6.66,2.98 6.66,6.67 0,3.68 -2.98,6.66 -6.66,6.66zm-40 13.34c-3.69,0 -6.67,-2.99 -6.67,-6.67 0,-3.68 2.98,-6.67 6.67,-6.67 3.68,0 6.67,2.99 6.67,6.67 0,3.68 -2.99,6.67 -6.67,6.67zm26.67 0c-3.69,0 -6.67,-2.99 -6.67,-6.67 0,-3.68 2.98,-6.67 6.67,-6.67 3.68,0 6.66,2.99 6.66,6.67 0,3.68 -2.98,6.67 -6.66,6.67zm13.33 13.33c-3.68,0 -6.67,-2.99 -6.67,-6.66 0,-3.69 2.99,-6.67 6.67,-6.67 3.68,0 6.66,2.98 6.66,6.67 0,3.67 -2.98,6.66 -6.66,6.66zm-26.67 0c-3.68,0 -6.66,-2.99 -6.66,-6.66 0,-3.69 2.98,-6.67 6.66,-6.67 3.68,0 6.67,2.98 6.67,6.67 0,3.67 -2.99,6.66 -6.67,6.66zm-26.67 0c-3.67,0 -6.66,-2.99 -6.66,-6.66 0,-3.69 2.99,-6.67 6.66,-6.67 3.69,0 6.67,2.98 6.67,6.67 0,3.67 -2.98,6.66 -6.67,6.66zm-13.33 13.33c-3.68,0 -6.67,-2.98 -6.67,-6.66 0,-0.33 0.03,-0.65 0.07,-0.96 0.54,-1.2 1.1,-2.38 1.68,-3.54 1.22,-1.33 2.98,-2.17 4.92,-2.17 3.68,0 6.67,2.99 6.67,6.67 0,3.68 -2.99,6.66 -6.67,6.66zm26.67 0c-3.69,0 -6.67,-2.98 -6.67,-6.66 0,-3.68 2.98,-6.67 6.67,-6.67 3.68,0 6.67,2.99 6.67,6.67 0,3.68 -2.99,6.66 -6.67,6.66zm26.67 0c-3.69,0 -6.67,-2.98 -6.67,-6.66 0,-3.68 2.98,-6.67 6.67,-6.67 3.68,0 6.66,2.99 6.66,6.67 0,3.68 -2.98,6.66 -6.66,6.66zm13.33 13.34c-3.68,0 -6.67,-2.99 -6.67,-6.67 0,-3.68 2.99,-6.67 6.67,-6.67 3.68,0 6.66,2.99 6.66,6.67 0,3.68 -2.98,6.67 -6.66,6.67zm-26.67 0c-3.68,0 -6.66,-2.99 -6.66,-6.67 0,-3.68 2.98,-6.67 6.66,-6.67 3.68,0 6.67,2.99 6.67,6.67 0,3.68 -2.99,6.67 -6.67,6.67zm-26.67 0c-3.67,0 -6.66,-2.99 -6.66,-6.67 0,-3.68 2.99,-6.67 6.66,-6.67 3.69,0 6.67,2.99 6.67,6.67 0,3.68 -2.98,6.67 -6.67,6.67zm-26.66 0l-0.01 -0.01c0.86,-4.24 1.99,-8.39 3.37,-12.42 1.98,1.16 3.3,3.31 3.3,5.76 0,3.68 -2.98,6.67 -6.66,6.67z"/>
  </g>
 </g>
</svg>
