<svg width="192" height="52" viewBox="0 0 192 52" fill="none" xmlns="http://www.w3.org/2000/svg">
<path d="M6.20605 52.0001C4.16311 52.0001 2.61841 51.4708 1.57196 50.4121C0.5255 49.3535 0.00151441 47.845 0 45.8866C0 43.7119 0.673914 42.0604 2.02174 40.9322C3.36956 39.804 5.48974 39.1318 8.38226 38.9156L13.5661 38.5481V37.8131C13.5808 37.135 13.5121 36.4578 13.3616 35.7964C13.2469 35.3018 12.9838 34.8539 12.6075 34.5125C12.1726 34.1544 11.6521 33.9152 11.0968 33.8183C10.2821 33.6668 9.45396 33.5984 8.62532 33.6142C7.54843 33.6211 6.47258 33.6824 5.4019 33.7979C4.20249 33.9204 2.99096 34.1041 1.76732 34.3491L1.38114 30.3113C4.08775 29.7999 6.83405 29.5267 9.58849 29.4946C12.8793 29.4946 15.3084 30.0927 16.8758 31.289C18.4432 32.4852 19.2254 34.3469 19.2224 36.8739V51.7959H14.5747L14.0454 49.0737H13.7183C11.3513 51.0231 8.84718 51.9986 6.20605 52.0001ZM8.53446 48.003C9.4173 47.9902 10.2898 47.8109 11.1059 47.4745C11.9709 47.1379 12.7929 46.7 13.5547 46.1701V41.6332L10.0837 41.9598C8.45268 42.096 7.31687 42.4082 6.67627 42.8967C6.03568 43.3852 5.71538 44.1731 5.71538 45.2605C5.71538 47.0904 6.65507 48.0045 8.53446 48.003Z" fill="white"/>
<path d="M21.9229 30.3905V29.7803H27.9585L32.3269 42.9079L33.4286 47.2701H33.8829L34.9846 42.9079L39.4756 29.7803H45.3955V30.3905L37.1109 51.7957H30.0893L21.9229 30.3905Z" fill="white"/>
<path d="M53.1152 52C51.0723 52 49.5276 51.4707 48.4811 50.4121C47.4347 49.3535 46.9107 47.8449 46.9092 45.8865C46.9092 43.7118 47.5831 42.0603 48.9309 40.9321C50.2787 39.804 52.3951 39.1317 55.2801 38.9155L60.4639 38.548V37.813C60.4786 37.135 60.41 36.4577 60.2595 35.7963C60.1447 35.3017 59.8816 34.8538 59.5053 34.5124C59.0704 34.1543 58.5499 33.9151 57.9947 33.8182C57.1799 33.6667 56.3518 33.5983 55.5231 33.6141C54.4463 33.621 53.3704 33.6824 52.2997 33.7978C51.1003 33.9203 49.8888 34.1041 48.6651 34.3491L48.2971 30.3135C51.0037 29.8021 53.7501 29.5288 56.5045 29.4968C59.7953 29.4968 62.2244 30.0949 63.7918 31.2912C65.3593 32.4874 66.1414 34.3491 66.1384 36.8761V51.7958H61.4839L60.9546 49.0737H60.6275C58.2604 51.023 55.7564 51.9985 53.1152 52ZM55.4459 48.003C56.3288 47.9901 57.2012 47.8108 58.0174 47.4744C58.8824 47.1378 59.7044 46.6999 60.4662 46.17V41.6331L56.9952 41.9598C55.3641 42.0959 54.2283 42.4082 53.5877 42.8966C52.9471 43.3851 52.6268 44.173 52.6268 45.2604C52.6253 47.0903 53.565 48.0045 55.4459 48.003Z" fill="white"/>
<path d="M71.4443 18.8533H77.1234V51.7959H71.4443V18.8533Z" fill="white"/>
<path d="M149.665 13.9805H163.665V27.961C159.952 27.9604 156.392 26.4873 153.766 23.8655C151.141 21.2438 149.666 17.6882 149.665 13.9805Z" fill="#151537"/>
<path d="M177.658 27.9612H163.665V41.9417C167.377 41.9393 170.936 40.4654 173.559 37.8439C176.183 35.2223 177.658 31.6677 177.658 27.9612Z" fill="white"/>
<path d="M177.658 0C173.947 0.00240521 170.388 1.47634 167.764 4.09787C165.14 6.71941 163.666 10.274 163.665 13.9805H177.658V27.9611C181.371 27.9611 184.932 26.4881 187.558 23.8663C190.183 21.2444 191.658 17.6884 191.658 13.9805C191.658 10.2727 190.183 6.71667 187.558 4.0948C184.932 1.47294 181.371 0 177.658 0Z" fill="#63DFDF"/>
<path d="M90.1856 51.9455C88.65 51.9455 87.1696 51.9054 85.7446 51.8252C84.3195 51.7451 83.1762 51.6377 82.3145 51.5031V28.4056C83.7668 28.2998 85.2198 28.2196 86.6737 28.1652C88.1275 28.1107 89.3648 28.0835 90.3855 28.0835C95.2316 28.0835 98.7836 29.0446 101.042 30.9667C103.3 32.8889 104.43 35.9052 104.433 40.0156C104.433 44.1533 103.29 47.1779 101.003 49.0895C98.7163 51.001 95.1105 51.953 90.1856 51.9455ZM90.992 48.3999C92.3653 48.4294 93.7365 48.2768 95.0696 47.9462C96.0996 47.6884 97.0495 47.1794 97.8341 46.4649C98.5741 45.748 99.1164 44.8526 99.4084 43.8652C100.08 41.3427 100.08 38.6885 99.4084 36.166C99.1154 35.1754 98.5671 34.2789 97.8182 33.5664C97.0228 32.8579 96.0672 32.3527 95.0332 32.0941C93.6962 31.7637 92.3213 31.6111 90.9443 31.6404C90.3522 31.6404 89.6707 31.6601 88.8999 31.6994C88.129 31.7387 87.3953 31.7864 86.6987 31.8423V48.1254C87.4059 48.2524 88.1207 48.3335 88.8385 48.3681C89.4927 48.3893 90.2106 48.3999 90.992 48.3999Z" fill="#151537"/>
<path d="M104.797 51.3829L113.961 28.3647H120.498L129.662 51.3829V51.6233H125.346L122.847 45.5779H111.578L109.079 51.6233H104.797V51.3829ZM121.87 42.5132L119.006 35.4197L117.391 31.4294H116.986L115.417 35.4605L112.511 42.5132H121.87Z" fill="#151537"/>
<path d="M142.054 51.9455C138.151 51.9455 135.171 50.9383 133.113 48.924C131.054 46.9096 130.025 43.9401 130.025 40.0157C130.025 36.0837 131.048 33.1074 133.092 31.087C135.137 29.0666 138.124 28.0518 142.054 28.0427C145.902 28.0427 148.855 29.0575 150.913 31.087C152.971 33.1165 154.001 36.0928 154.002 40.0157C154.002 43.9371 152.972 46.9065 150.913 48.924C148.853 50.9414 145.9 51.9486 142.054 51.9455ZM142.054 48.3999C144.719 48.3999 146.636 47.7345 147.805 46.4037C148.974 45.0728 149.56 42.9435 149.561 40.0157C149.561 37.0863 148.962 34.9494 147.764 33.605C146.567 32.2606 144.663 31.5891 142.054 31.5906C139.388 31.5906 137.464 32.2621 136.281 33.605C135.099 34.9479 134.504 37.0848 134.498 40.0157C134.498 42.9435 135.09 45.0728 136.275 46.4037C137.459 47.7345 139.385 48.3999 142.054 48.3999Z" fill="#151537"/>
</svg>
