<svg xmlns="http://www.w3.org/2000/svg" xmlns:xlink="http://www.w3.org/1999/xlink" viewBox="0 0 179.33 182.09"><defs><style>.cls-1{isolation:isolate;}.cls-13,.cls-2{opacity:0.1;}.cls-3{fill:#fff;}.cls-4{fill:url(#linear-gradient);}.cls-5{fill:url(#linear-gradient-2);}.cls-6{fill:url(#radial-gradient);}.cls-7{fill:url(#radial-gradient-2);}.cls-8{fill:#d01e22;}.cls-9{fill:#2da535;}.cls-10{fill:#efc01d;}.cls-11{opacity:0.5;mix-blend-mode:overlay;fill:url(#linear-gradient-3);}.cls-12{opacity:0.05;}.cls-12,.cls-13{mix-blend-mode:multiply;}</style><linearGradient id="linear-gradient" x1="62.77" y1="179.23" x2="62.77" y2="110.3" gradientUnits="userSpaceOnUse"><stop offset="0" stop-color="#48a34b"/><stop offset="1" stop-color="#4bb64b"/></linearGradient><linearGradient id="linear-gradient-2" x1="132.56" y1="179.33" x2="132.56" y2="110.82" gradientUnits="userSpaceOnUse"><stop offset="0" stop-color="#efc01d"/><stop offset="1" stop-color="#fcd11c"/></linearGradient><radialGradient id="radial-gradient" cx="92.32" cy="10.02" r="80.81" gradientTransform="translate(0 1.91) scale(1 0.81)" gradientUnits="userSpaceOnUse"><stop offset="0" stop-color="#ee6959"/><stop offset="1" stop-color="#e03131"/></radialGradient><radialGradient id="radial-gradient-2" cx="90.36" cy="70.35" r="54.51" gradientTransform="translate(178.88 -0.45) rotate(89.71)" gradientUnits="userSpaceOnUse"><stop offset="0" stop-color="#72a6d8"/><stop offset="0.19" stop-color="#6ea3d5"/><stop offset="0.39" stop-color="#619acd"/><stop offset="0.59" stop-color="#4d8cbf"/><stop offset="0.8" stop-color="#3077ac"/><stop offset="1" stop-color="#0b5d93"/></radialGradient><linearGradient id="linear-gradient-3" x1="4.14" y1="108.98" x2="175.19" y2="108.98" gradientUnits="userSpaceOnUse"><stop offset="0" stop-color="#fff" stop-opacity="0"/><stop offset="0.5" stop-color="#fff"/><stop offset="1" stop-color="#fff" stop-opacity="0"/></linearGradient></defs><title>Chrome</title><g class="cls-1"><g id="Capa_2" data-name="Capa 2"><g id="Layer_1" data-name="Layer 1"><g class="cls-2"><path d="M179.29,89.83h0a89.21,89.21,0,0,0-9.72-38.08h0c-.13-.24-.24-.48-.36-.72A89.67,89.67,0,0,0,0,90.05H0c0,.52,0,1.06,0,1.59H0c0,.27,0,.53,0,.8A89.66,89.66,0,0,0,85.78,182c1.29.06,2.58.1,3.89.1a89.66,89.66,0,0,0,89.66-89.66C179.33,91.56,179.32,90.69,179.29,89.83Zm-130.94.3c0-.09,0-.18,0-.28s0-.09,0-.13q.06-.84.15-1.68c0-.08,0-.16,0-.25v0l0-.24c.09-.7.18-1.39.3-2.08l0-.09c0-.14.06-.29.09-.43.11-.6.22-1.19.35-1.77h0A41.45,41.45,0,0,1,53.75,71.9l0-.08c.28-.48.56-.95.86-1.42l0,0a41.39,41.39,0,0,1,5.1-6.53l.24-.25,1-1,.35-.33c.31-.3.63-.59,1-.87l.4-.35c.32-.28.65-.55,1-.82L64,60c1.08-.85,2.2-1.65,3.36-2.39l.6-.39.88-.52.74-.42c.28-.16.57-.31.86-.46s.54-.29.81-.42l.84-.41.9-.4.81-.36,1-.4.73-.28c.57-.21,1.16-.41,1.74-.59l.42-.12,1.42-.41.7-.17L81.05,52l.76-.15q.59-.12,1.17-.21l.77-.12q.6-.09,1.2-.15l.76-.08c.43-.05.88-.08,1.32-.11l.64,0c.66,0,1.33-.05,2-.05s1.45,0,2.17.06l.31,0,.36,0,.67.05.81.07.68.08.09,0c.45.05.9.1,1.35.18l.61.1.16,0,1.32.25.61.14.13,0,1.32.32.7.2c.44.13.89.25,1.32.39l.65.22,1.34.48.14.06.44.17,1.11.46.25.1.2.09.32.15,1.38.65.45.24c.47.24.94.49,1.4.75l.39.22c.47.28.94.56,1.41.86l.32.2.86.58c.18.13.38.25.56.39l.26.18c.49.35,1,.71,1.43,1.07l.19.16c.49.38,1,.78,1.43,1.19l.14.11c.48.43,1,.87,1.42,1.31a.6.6,0,0,0,.08.08c.48.47,1,.94,1.41,1.43h0c.41.43.8.87,1.19,1.32l0,0,.34.42c.27.32.54.64.8,1h0c.13.16.25.33.38.5s.48.63.71.95l.37.54c.22.32.45.65.66,1,.12.17.23.36.34.54q.33.51.63,1c.11.18.21.36.31.54.2.35.4.71.59,1.07l.28.53c.19.38.38.75.56,1.13l.24.52c.18.39.35.78.52,1.18.07.17.14.33.2.5.17.41.33.83.49,1.25l.17.47c.15.44.3.87.44,1.32,0,.14.09.29.14.44.14.46.27.92.39,1.39,0,.13.07.27.11.41.12.48.24,1,.34,1.45,0,.13.06.25.08.38.11.5.2,1,.29,1.52,0,.12,0,.23.05.34.09.53.16,1.07.22,1.6,0,.1,0,.2,0,.3q.09.83.15,1.68a1.94,1.94,0,0,1,0,.24c0,.6.07,1.21.08,1.82,0,.3,0,.59,0,.89a41.1,41.1,0,0,1-5.58,20.71c-.41.71-.85,1.4-1.3,2.09l-.44.63q-.48.7-1,1.38l-.53.69c-.34.44-.69.86-1,1.28l-.54.63c-.44.5-.89,1-1.35,1.45l-.32.34c-.57.57-1.16,1.12-1.76,1.66l-.58.49q-.63.56-1.29,1.08l-.74.57c-.41.31-.83.61-1.25.91l-.78.53q-.69.47-1.41.9c-.22.13-.44.28-.67.41-.69.4-1.38.78-2.09,1.14l-.72.35-1.5.7-1,.39-1.36.53-1,.35q-.72.24-1.44.45c-.32.1-.64.2-1,.28-.75.21-1.51.39-2.28.56h0A41.44,41.44,0,0,1,48.28,92.43C48.28,91.65,48.31,90.89,48.35,90.13Zm6.83,2.3c0-.7,0-1.38.07-2.07h0a34.48,34.48,0,0,1,68.84,0h0c0,.69.06,1.37.06,2.07a34.49,34.49,0,0,1-69,0Z"/></g><path class="cls-3" d="M179.29,87.07v0A89.22,89.22,0,0,0,169.57,49h0c-.13-.24-.24-.48-.36-.72A89.67,89.67,0,0,0,0,87.29H0l0,1.59H0c0,.27,0,.53,0,.8a89.65,89.65,0,0,0,85.78,89.56c1.29.06,2.58.1,3.89.1a89.66,89.66,0,0,0,89.66-89.66C179.33,88.8,179.32,87.94,179.29,87.07Zm-130.94.3c0-.09,0-.18,0-.28s0-.09,0-.13q.06-.84.15-1.68c0-.08,0-.16,0-.25v0l0-.24c.09-.7.18-1.39.3-2.08l0-.09c0-.14.06-.29.09-.43.11-.59.22-1.19.35-1.77h0a41.45,41.45,0,0,1,4.41-11.25.56.56,0,0,0,0-.08c.28-.48.56-1,.86-1.42l0,0a41.39,41.39,0,0,1,5.1-6.53l.24-.25,1-.95.35-.33c.31-.3.63-.59,1-.87l.4-.35c.32-.28.65-.55,1-.82l.38-.3a39.45,39.45,0,0,1,3.36-2.4l.6-.38.88-.53.74-.42c.28-.16.57-.31.86-.46l.81-.42.84-.41.9-.4.81-.36,1-.4.73-.28c.57-.21,1.16-.41,1.74-.59l.42-.12,1.42-.41.7-.17,1.18-.27.76-.15L83,48.83l.77-.12c.4-.06.8-.1,1.2-.15l.76-.08c.43,0,.88-.08,1.32-.1l.64-.05c.66,0,1.33,0,2,0s1.45,0,2.17.06l.31,0,.36,0,.67,0,.81.07c.23,0,.46.06.68.09h.09l1.35.18.61.11a.9.9,0,0,1,.16,0q.68.1,1.32.24l.61.14.13,0,1.32.32.7.2c.44.13.89.25,1.32.4.22.06.43.14.65.21l1.34.48.14.06.44.17,1.11.46.25.1.2.09.32.15,1.38.65.45.24c.47.24.94.49,1.4.75l.39.22c.47.28.94.56,1.41.86l.32.21c.29.18.57.38.86.57l.56.39.26.18c.49.35,1,.71,1.43,1.07l.19.16c.49.38,1,.78,1.43,1.19l.14.12c.48.42,1,.86,1.42,1.31l.08.07c.48.47,1,.94,1.41,1.43h0c.41.43.8.87,1.19,1.32l0,0,.34.42c.27.32.54.64.8,1h0c.13.17.25.34.38.5.24.32.48.63.71,1l.37.54c.22.32.45.65.66,1,.12.18.23.36.34.54q.33.51.63,1c.11.18.21.36.31.54.2.35.4.71.59,1.07l.28.53c.19.38.38.75.56,1.13l.24.52c.18.39.35.78.52,1.18.07.17.14.33.2.5.17.41.33.83.49,1.25l.17.47c.15.44.3.87.44,1.32l.14.44c.14.46.27.92.39,1.39,0,.13.07.27.11.41.12.48.24,1,.34,1.45,0,.13.06.25.08.38.11.5.2,1,.29,1.52,0,.12,0,.23.05.34.09.53.16,1.07.22,1.6,0,.1,0,.2,0,.3.06.55.11,1.12.15,1.68a1.94,1.94,0,0,1,0,.24c0,.6.07,1.21.08,1.82,0,.3,0,.59,0,.89a41.17,41.17,0,0,1-5.58,20.72c-.41.7-.85,1.4-1.3,2.08l-.44.63q-.48.7-1,1.38l-.53.69c-.34.44-.69.86-1,1.28l-.54.63c-.44.5-.89,1-1.35,1.45l-.32.34c-.57.57-1.16,1.12-1.76,1.66l-.58.49q-.63.56-1.29,1.08l-.74.57c-.41.31-.83.61-1.25.91l-.78.53q-.69.47-1.41.9c-.22.13-.44.28-.67.41-.69.4-1.38.78-2.09,1.14-.24.13-.48.23-.72.35-.5.24-1,.48-1.5.7l-1,.39-1.36.53-1,.35-1.44.45-1,.29c-.75.2-1.51.39-2.28.55h0A41.44,41.44,0,0,1,48.28,89.67C48.28,88.9,48.31,88.13,48.35,87.37Zm6.83,2.3c0-.7,0-1.38.07-2.07h0a34.48,34.48,0,0,1,68.84,0h0c0,.69.06,1.37.06,2.07a34.49,34.49,0,0,1-69,0Z"/><path class="cls-4" d="M125.47,110.39a41.35,41.35,0,0,1-71.6,0h0L14.05,41.51A89.63,89.63,0,0,0,85.78,179.23l39.75-68.84Z"/><path class="cls-5" d="M169.21,48.28H89.67a41.36,41.36,0,0,1,35.8,62.11h.06L85.78,179.23c1.29.06,2.58.1,3.89.1a89.67,89.67,0,0,0,79.54-131Z"/><path class="cls-6" d="M53.87,110.39a41,41,0,0,1-5.59-20.72A41.44,41.44,0,0,1,89.67,48.28h79.54A89.65,89.65,0,0,0,14.05,41.51l39.77,68.88Z"/><circle class="cls-7" cx="89.67" cy="89.67" r="34.49" transform="translate(-0.45 178.88) rotate(-89.71)"/><path class="cls-8" d="M48.28,89.67a41.61,41.61,0,0,1,1.06-9.27L14.41,41l-.36.56,39.77,68.88h0A41,41,0,0,1,48.28,89.67Z"/><path class="cls-9" d="M98.12,130.18l-13.19,49,.85,0,39.75-68.84h-.06A41.52,41.52,0,0,1,98.12,130.18Z"/><path class="cls-10" d="M119.88,61.42,169.57,49c-.13-.24-.24-.48-.36-.72H89.67A41.28,41.28,0,0,1,119.88,61.42Z"/><path class="cls-11" d="M120,89c0,.23,0,.46,0,.69a30.35,30.35,0,1,1-60.7,0c0-.23,0-.46,0-.69A30.34,30.34,0,0,0,120,89Zm55.18,0a85.62,85.62,0,0,1-85.51,84.79c-1.25,0-2.48,0-3.71-.09A85.3,85.3,0,0,1,4.15,88.87c0,.26,0,.53,0,.8A85.3,85.3,0,0,0,86,175.1c1.23.05,2.46.09,3.71.09a85.61,85.61,0,0,0,85.52-85.52C175.19,89.45,175.18,89.24,175.18,89Zm-131-1.89,0-.45c0-.71.11-1.42.19-2.12l0-.29c.1-.76.2-1.53.35-2.38s.3-1.62.49-2.42A45.31,45.31,0,0,1,89.67,44.14c.8,0,1.6,0,2.38.07l.85.06c.51,0,1,.07,1.51.12l1,.13c.45,0,.91.11,1.36.18l.93.16,1.36.26.83.19c.48.11,1,.22,1.45.35l.77.22c.48.14,1,.28,1.45.44l.71.24c.49.16,1,.34,1.48.52l.63.25c.51.2,1,.41,1.51.63l.56.25c.52.23,1,.47,1.52.72l.5.26c.52.27,1,.54,1.54.83l.42.24c.53.31,1,.62,1.56,1l.35.22c.53.34,1,.7,1.64,1.11l.21.15c.53.38,1,.78,1.66,1.25l.12.1c.53.42,1.06.86,1.6,1.34l.12.1c.53.47,1,1,1.65,1.52s1,1,1.55,1.57a45.37,45.37,0,0,1,12.29,30.29c0-.19,0-.38,0-.57a45.35,45.35,0,0,0-12.31-31.1c-.51-.53-1-1.06-1.55-1.57s-1.12-1-1.65-1.52l-.12-.1c-.54-.48-1.07-.92-1.6-1.34l-.12-.1c-.61-.47-1.13-.87-1.66-1.25l-.21-.15c-.59-.41-1.11-.77-1.64-1.11l-.35-.22c-.51-.33-1-.64-1.56-.95l-.42-.24c-.51-.29-1-.56-1.54-.83l-.5-.26c-.5-.25-1-.48-1.52-.72l-.56-.25c-.5-.22-1-.43-1.51-.63l-.63-.25c-.49-.18-1-.36-1.48-.52l-.71-.24c-.48-.16-1-.3-1.45-.44l-.77-.22c-.49-.13-1-.24-1.45-.35l-.83-.19-1.36-.25-.93-.17c-.45-.07-.91-.13-1.36-.18l-1-.13c-.49,0-1-.08-1.51-.12l-.85-.06c-.78,0-1.58-.07-2.38-.07A45.31,45.31,0,0,0,45.31,78.09c-.19.8-.35,1.61-.49,2.42s-.25,1.62-.35,2.39l0,.28c-.08.71-.14,1.41-.19,2.13l0,.44c0,.85-.08,1.69-.08,2.54,0,.21,0,.43,0,.64C44.18,88.33,44.18,87.73,44.22,87.13Z"/><path class="cls-12" d="M55.18,89.67c0-.7,0-1.39.07-2.07a34.48,34.48,0,0,0,68.84,0q.06,1,.06,2.07a34.49,34.49,0,0,1-69,0Zm64.68-32.41c-.46-.49-.93-1-1.41-1.43l-.08-.07c-.46-.45-.94-.89-1.42-1.31l-.14-.12c-.47-.41-.94-.8-1.43-1.19l-.19-.15c-.47-.37-.94-.73-1.43-1.08l-.26-.18c-.46-.33-.94-.65-1.42-1l-.32-.21-1.41-.86-.39-.22c-.46-.26-.93-.51-1.4-.75l-.45-.23q-.69-.34-1.38-.66l-.52-.23c-.45-.2-.9-.39-1.36-.57l-.58-.23c-.45-.17-.89-.32-1.34-.47l-.65-.22-1.32-.4-.7-.2-1.32-.31L98.2,45q-.65-.14-1.32-.24l-.77-.14-1.35-.18-.77-.1c-.49,0-1-.08-1.48-.12l-.67,0c-.72,0-1.44-.06-2.17-.06A41.45,41.45,0,0,0,49.34,76.26c-.17.73-.31,1.46-.44,2.2l0,.09c-.12.69-.21,1.38-.3,2.08l0,.26c-.07.64-.13,1.29-.17,1.93l0,.41c0,.76-.07,1.53-.07,2.3s0,1.28.07,1.91v-.07l0-.41c0-.65.1-1.29.17-1.93l0-.26c.09-.7.18-1.39.3-2.08l0-.09c.13-.74.27-1.47.44-2.2A41.45,41.45,0,0,1,89.67,48.28c.73,0,1.45,0,2.17.06l.67,0c.49,0,1,.07,1.48.12l.77.1,1.35.18.77.14q.68.1,1.32.24l.74.17,1.32.32.7.2c.44.13.89.25,1.32.4.22.06.43.14.65.21l1.34.48.58.23,1.36.56.52.24,1.38.65.45.24c.47.24.94.49,1.4.75l.39.22c.47.28.94.56,1.41.86l.32.21c.48.31,1,.63,1.42,1l.26.18c.49.35,1,.71,1.43,1.07l.19.16c.49.38,1,.78,1.43,1.19l.14.12c.48.42,1,.86,1.42,1.31l.08.07c.48.47,1,.94,1.41,1.43a41.3,41.3,0,0,1,11.13,26c0-.63.06-1.26.06-1.9A41.27,41.27,0,0,0,119.86,57.26ZM89.67,175.19c-1.31,0-2.6,0-3.89-.09A89.65,89.65,0,0,1,0,87.29c0,.79,0,1.58,0,2.38a89.65,89.65,0,0,0,85.78,89.56c1.29.06,2.58.1,3.89.1a89.66,89.66,0,0,0,89.66-89.66c0-.87,0-1.73,0-2.6A89.64,89.64,0,0,1,89.67,175.19Z"/><path class="cls-13" d="M55.18,89.67c0-.23,0-.46,0-.69a34.48,34.48,0,0,0,68.94,0c0,.23,0,.46,0,.69a34.49,34.49,0,0,1-69,0ZM119.86,60c-.46-.49-.93-1-1.41-1.43l-.08-.07c-.46-.45-.94-.89-1.42-1.31l-.14-.12c-.47-.41-.94-.81-1.43-1.19l-.19-.15c-.47-.37-.94-.73-1.43-1.08l-.26-.18c-.46-.33-.94-.65-1.42-1l-.32-.21c-.47-.3-.94-.58-1.41-.86l-.39-.22c-.46-.26-.93-.51-1.4-.75l-.45-.23-1.38-.66-.52-.24-1.36-.56-.58-.23-1.34-.48-.65-.21-1.32-.4-.7-.2L98.94,48l-.74-.17q-.65-.13-1.32-.24l-.77-.14-1.35-.18-.77-.1c-.49-.05-1-.08-1.48-.12l-.67,0c-.72,0-1.44-.06-2.17-.06A41.45,41.45,0,0,0,49.34,79c-.17.73-.31,1.46-.44,2.2l0,.09c-.12.69-.21,1.38-.3,2.08l0,.26c-.07.64-.13,1.28-.17,1.93l0,.41c0,.76-.07,1.53-.07,2.3,0,.21,0,.42,0,.63,0-.51,0-1,.05-1.55l0-.41c0-.65.1-1.29.17-1.93l0-.26c.09-.7.18-1.39.3-2.08l0-.09c.13-.74.27-1.47.44-2.2A41.45,41.45,0,0,1,89.67,48.28c.73,0,1.45,0,2.17.06l.67,0c.49,0,1,.07,1.48.12l.77.1,1.35.18.77.14q.68.1,1.32.24l.74.17,1.32.32.7.2c.44.13.89.25,1.32.4.22.06.43.14.65.21l1.34.48.58.23,1.36.56.52.24,1.38.65.45.24c.47.24.94.49,1.4.75l.39.22c.47.28.94.56,1.41.86l.32.21c.48.31,1,.63,1.42,1l.26.18c.49.35,1,.71,1.43,1.07l.19.16c.49.38,1,.78,1.43,1.19l.14.12c.48.42,1,.86,1.42,1.31l.08.07c.48.47,1,.94,1.41,1.43A41.23,41.23,0,0,1,131,88.87c0-.2,0-.39,0-.58A41.27,41.27,0,0,0,119.86,60ZM89.67,178c-1.31,0-2.6,0-3.89-.09A89.66,89.66,0,0,1,0,88.87c0,.27,0,.53,0,.8a89.65,89.65,0,0,0,85.78,89.56c1.29.06,2.58.1,3.89.1a89.66,89.66,0,0,0,89.66-89.66c0-.29,0-.58,0-.87A89.65,89.65,0,0,1,89.67,178Z"/></g></g></g></svg>