<svg width="25" height="25" viewBox="0 0 25 25" fill="none" xmlns="http://www.w3.org/2000/svg">
<rect x="1" y="1" width="23" height="23" rx="4" fill="#63DFDF"/>
<path fill-rule="evenodd" clip-rule="evenodd" d="M17.8537 8.64604C17.9002 8.69248 17.9372 8.74766 17.9624 8.80841C17.9876 8.86915 18.0005 8.93427 18.0005 9.00004C18.0005 9.06581 17.9876 9.13093 17.9624 9.19167C17.9372 9.25242 17.9002 9.30759 17.8537 9.35404L10.8537 16.354C10.8072 16.4006 10.752 16.4375 10.6913 16.4628C10.6305 16.488 10.5654 16.5009 10.4997 16.5009C10.4339 16.5009 10.3688 16.488 10.308 16.4628C10.2473 16.4375 10.1921 16.4006 10.1457 16.354L6.64565 12.854C6.55177 12.7602 6.49902 12.6328 6.49902 12.5C6.49902 12.3673 6.55177 12.2399 6.64565 12.146C6.73954 12.0522 6.86688 11.9994 6.99966 11.9994C7.13243 11.9994 7.25977 12.0522 7.35366 12.146L10.4997 15.293L17.1457 8.64604C17.1921 8.59948 17.2473 8.56253 17.308 8.53733C17.3688 8.51212 17.4339 8.49915 17.4997 8.49915C17.5654 8.49915 17.6305 8.51212 17.6913 8.53733C17.752 8.56253 17.8072 8.59948 17.8537 8.64604Z" fill="white"/>
<rect x="1" y="1" width="23" height="23" rx="4" stroke="#7868E5" stroke-width="2"/>
</svg>
