<svg width="65" height="64" viewBox="0 0 65 64" fill="none" xmlns="http://www.w3.org/2000/svg">
<rect x="2.83594" y="17.7063" width="42.8598" height="43.7345" rx="16" transform="rotate(-23.6691 2.83594 17.7063)" fill="#63DFDF"/>
<path d="M21.7435 22.6828L25.3288 19.0243L27.7192 18.4145C27.52 15.7722 27.1216 10.3657 27.1216 9.87793C43.8533 10.4877 37.8777 22.6828 38.4753 22.6828C51.6217 29.3901 52.8167 47.6828 51.6216 49.5121C39.1923 50.9755 28.9142 41.1787 25.3288 36.0974C24.1337 36.0974 20.7874 35.7316 16.963 34.2682C13.1386 32.8048 12.5808 27.1544 12.78 24.5121L21.1459 25.1218L21.7435 22.6828Z" fill="white"/>
<path d="M51.8507 50.0986C51.9292 50.082 52.0015 50.0428 52.059 49.9857C52.1164 49.9286 52.1567 49.856 52.1751 49.7763C53.448 44.4658 48.9126 32.1982 42.3971 25.5449C41.2446 24.3591 39.9932 23.2779 38.657 22.3134C38.8389 20.2627 38.6858 18.2119 37.9393 16.4658C35.8147 11.5351 30.2658 10.1005 27.8837 9.70015C27.7532 9.67846 27.6196 9.68772 27.4931 9.72723C27.3667 9.76674 27.2508 9.83542 27.1546 9.92797C27.0583 10.0205 26.9843 10.1344 26.9381 10.2609C26.892 10.3873 26.875 10.5229 26.8884 10.6572L27.7402 18.5742C27.155 18.5797 26.5704 18.6155 25.9888 18.6816C25.5868 18.7229 25.2115 18.9059 24.9275 19.1992L21.9234 22.2646C21.6358 22.5547 21.4564 22.938 21.4161 23.3486C21.3517 23.9385 21.3165 24.5314 21.3109 25.125L13.5589 24.2568C13.4275 24.2432 13.2948 24.2607 13.1711 24.3078C13.0474 24.3549 12.9359 24.4304 12.8454 24.5285C12.7548 24.6266 12.6876 24.7446 12.6488 24.8734C12.6101 25.0022 12.6009 25.1384 12.622 25.2714C13.0048 27.7031 14.4107 33.3769 19.2418 35.5322C20.9548 36.2939 22.9541 36.4502 24.9543 36.2744C25.8986 37.6418 26.9582 38.9224 28.1211 40.1015C34.6289 46.7793 46.387 51.3779 51.8507 50.0986ZM36.5516 34.166C37.1231 33.5827 37.8512 33.1855 38.6439 33.0245C39.4367 32.8635 40.2584 32.946 41.0051 33.2616C41.7519 33.5772 42.3902 34.1117 42.8393 34.7974C43.2883 35.4832 43.528 36.2894 43.528 37.1142C43.528 37.939 43.2883 38.7452 42.8393 39.431C42.3902 40.1168 41.7519 40.6512 41.0051 40.9668C40.2584 41.2824 39.4367 41.3649 38.6439 41.2039C37.8512 41.043 37.1231 40.6457 36.5516 40.0625C36.1716 39.6756 35.8702 39.216 35.6645 38.7101C35.4589 38.2042 35.353 37.6619 35.353 37.1142C35.353 36.5665 35.4589 36.0242 35.6645 35.5183C35.8702 35.0124 36.1716 34.5528 36.5516 34.166V34.166Z" stroke="#9747FF" stroke-width="2" stroke-linecap="round" stroke-linejoin="round"/>
<path d="M23.3125 15.707C23.1954 14.7335 22.7629 13.8278 22.0837 13.1338C20.3916 11.4131 14.125 11.25 14.125 11.25C14.125 11.25 14.2848 17.6484 15.973 19.3701C16.6521 20.066 17.5412 20.5081 18.4967 20.625" stroke="#9747FF" stroke-width="2" stroke-linecap="round" stroke-linejoin="round"/>
</svg>
